<?xml version="1.0" encoding="UTF-8"?>
<svg version="1.1" xmlns="http://www.w3.org/2000/svg" width="618" height="225">
<path d="M0 0 C151.14 0 302.28 0 458 0 C458.99 4.62 459.98 9.24 461 14 C468.04040325 29.39064896 479.28619901 36.6430995 494 44 C493.67 47.3 493.34 50.6 493 54 C496.26336664 56.17557776 498.49432777 56.62633878 502.3125 57.375 C510.33527203 59.16476379 515.33025359 62.06209104 520 69 C520.87834162 73.18901387 521.01759767 76.93431363 520.9375 81.1875 C520.99706649 84.82105613 521.10143107 86.92612649 523 90 C525.47130918 91.15521502 525.47130918 91.15521502 528 92 C528.66 92.99 529.32 93.98 530 95 C529.51789062 95.31453125 529.03578125 95.6290625 528.5390625 95.953125 C527.90742187 96.38109375 527.27578125 96.8090625 526.625 97.25 C525.99851562 97.66765625 525.37203125 98.0853125 524.7265625 98.515625 C522.69596724 100.26138563 521.88495511 101.47155683 521 104 C520.90813241 106.78275667 520.90813241 106.78275667 521.125 109.75 C521.23419395 117.22068601 519.42604979 121.40066094 514.375 126.8125 C510.41161994 129.80259432 505.74392431 130.81027766 501 132 C496.65715908 132.87913636 496.65715908 132.87913636 493 135 C492.84182356 138.55896985 493.0645509 141.57744416 494 145 C493.03320312 145.47308594 492.06640625 145.94617188 491.0703125 146.43359375 C478.36584411 152.81526672 466.50584086 160.89335168 460.94140625 174.609375 C459.41259449 179.4372016 458.72478671 183.92649302 458 189 C306.86 189 155.72 189 0 189 C-0.66 184.71 -1.32 180.42 -2 176 C-7.83414696 161.58622515 -18.81470878 152.31291752 -32.93359375 146.2421875 C-33.94550781 145.83226562 -34.95742188 145.42234375 -36 145 C-35.649375 144.113125 -35.29875 143.22625 -34.9375 142.3125 C-33.96418274 138.87344567 -34.17730528 137.37707553 -35 134 C-36.46759766 133.67128906 -36.46759766 133.67128906 -37.96484375 133.3359375 C-46.99905781 131.19843969 -55.07983856 128.98929637 -61.0625 121.375 C-62.24777775 117.10800009 -62.02613038 113.24349886 -61.93359375 108.83984375 C-62.02130881 105.08873511 -62.73398357 102.99698947 -65 100 C-67.25158548 98.12367877 -69.52227509 96.5894839 -72 95 C-70.21183372 93.15448728 -68.52633251 91.65341403 -66.4375 90.125 C-63.70788233 87.74533331 -63.05050921 86.42026256 -62 83 C-61.90723344 80.10780889 -61.90723344 80.10780889 -62.125 77.125 C-62.2364878 70.14414833 -60.70164362 66.86056384 -55.875 61.75 C-50.5382656 58.50155297 -44.45703144 57.34740337 -38.4375 55.875 C-35.18961322 55.35988875 -35.18961322 55.35988875 -34 54 C-34.38859359 50.50265772 -34.88596087 47.34211739 -36 44 C-34.54980469 43.27296875 -34.54980469 43.27296875 -33.0703125 42.53125 C-18.38038236 35.03029069 -8.18589395 27.3631853 -1.76171875 11.75 C-0.7045263 7.93326419 -0.43735803 3.93622231 0 0 Z M4 4 C2.68 8.95 1.36 13.9 0 19 C-7.44736068 31.18659021 -17.35365658 39.51239593 -30 46 C-29.95875 47.2375 -29.9175 48.475 -29.875 49.75 C-29.90497967 55.40616531 -29.90497967 55.40616531 -32 58 C-35.56683196 59.63847404 -39.11326102 60.53829392 -42.9375 61.375 C-48.81191632 62.81834553 -52.88968172 64.18455133 -56.625 69.16796875 C-58.8375845 73.72513854 -58.42055835 78.31822183 -58.49609375 83.30859375 C-59.07196816 87.52720859 -60.53559492 89.5949075 -63 93 C-63.29325491 96.1544825 -63.29325491 96.1544825 -61.03125 98.71875 C-58.0538436 103.52840649 -58.5137252 107.81180089 -58.46875 113.34375 C-57.85417672 118.13742158 -56.10514832 121.33980348 -52.28125 124.35546875 C-47.22682714 126.71641627 -42.20858853 128.01592558 -36.734375 129.09375 C-33.48938186 130.16923344 -32.04902056 131.27441604 -30 134 C-29.609375 136.359375 -29.609375 136.359375 -29.75 138.75 C-29.78609375 139.54921875 -29.8221875 140.3484375 -29.859375 141.171875 C-29.90578125 141.77515625 -29.9521875 142.3784375 -30 143 C-28.64068359 143.72703125 -28.64068359 143.72703125 -27.25390625 144.46875 C-13.26785572 152.0955813 -2.35510648 160.97094905 2.4921875 176.83203125 C3.12361156 179.52772627 3.5448354 182.26901241 4 185 C152.5 185 301 185 454 185 C455.65 179.72 457.3 174.44 459 169 C466.31744315 156.51730286 476.23776118 149.22109134 489 143 C488.96519531 142.31292969 488.93039062 141.62585938 488.89453125 140.91796875 C488.85392578 139.56638672 488.85392578 139.56638672 488.8125 138.1875 C488.76029297 136.84751953 488.76029297 136.84751953 488.70703125 135.48046875 C489 133 489 133 490.02734375 131.2890625 C493.01352211 129.33769842 496.30610773 128.8786239 499.75 128.1875 C506.98018117 126.56607898 511.9049827 124.73537647 516.171875 118.20703125 C517.28165937 115.24935121 517.04496889 112.8319244 516.875 109.6875 C516.76816256 103.74466714 517.43390612 100.71983014 521 96 C521.66 95.34 522.32 94.68 523 94 C522.195625 93.071875 521.39125 92.14375 520.5625 91.1875 C517.17461988 87.27840756 516.94908997 84.32748934 517.1875 79.25 C517.21553342 73.44708221 516.67190328 70.51926558 513 66 C507.79061755 62.00983472 502.3775022 61.01736528 495.98828125 59.80859375 C492.89597787 58.97185283 491.18586583 58.33861308 489 56 C488.609375 53.51953125 488.609375 53.51953125 488.75 50.8125 C488.78609375 49.91144531 488.8221875 49.01039062 488.859375 48.08203125 C488.90578125 47.39496094 488.9521875 46.70789062 489 46 C488.32195313 45.6596875 487.64390625 45.319375 486.9453125 44.96875 C473.51062448 37.97229198 463.00283588 29.14954171 457 15 C456.01 11.37 455.02 7.74 454 4 C305.5 4 157 4 4 4 Z " fill="#FEFEFE" transform="translate(78,16)"/>
</svg>
